<svg width="24" height="24" viewBox="0 0 24 24" fill="none" xmlns="http://www.w3.org/2000/svg">
<path d="M10.9688 13.7898C13.2563 13.7898 15.1875 14.1662 15.1875 15.6199C15.1875 17.0736 13.2439 17.4375 10.9688 17.4375C8.68118 17.4375 6.75 17.0605 6.75 15.6074C6.75 14.1537 8.693 13.7898 10.9688 13.7898ZM16.3119 9.5625C16.5911 9.5625 16.8176 9.79281 16.8176 10.0753V10.7369H17.4943C17.7729 10.7369 18 10.9672 18 11.2497C18 11.5322 17.7729 11.7625 17.4943 11.7625H16.8176V12.4247C16.8176 12.7072 16.5911 12.9375 16.3119 12.9375C16.0334 12.9375 15.8063 12.7072 15.8063 12.4247V11.7625H15.1307C14.8515 11.7625 14.625 11.5322 14.625 11.2497C14.625 10.9672 14.8515 10.7369 15.1307 10.7369H15.8063V10.0753C15.8063 9.79281 16.0334 9.5625 16.3119 9.5625ZM10.9688 6.75C12.5182 6.75 13.7602 8.0081 13.7602 9.5776C13.7602 11.1471 12.5182 12.4052 10.9688 12.4052C9.4193 12.4052 8.17727 11.1471 8.17727 9.5776C8.17727 8.0081 9.4193 6.75 10.9688 6.75Z" fill="white"/>
<rect x="0.5" y="0.5" width="23" height="23" rx="11.5" stroke="white"/>
</svg>
